<svg width="48" height="48" viewBox="0 0 48 48" fill="none" xmlns="http://www.w3.org/2000/svg">
<path d="M33.0557 4H14.9444C12.5388 4 11.336 4 10.3694 4.5974C9.40278 5.19479 8.86486 6.27063 7.78903 8.42229L4.9818 15.5186C4.33322 17.1581 3.76575 19.0905 4.85751 20.475C5.58995 21.4038 6.72531 22 8 22C10.2091 22 12 20.2091 12 18C12 20.2091 13.7909 22 16 22C18.2091 22 20 20.2091 20 18C20 20.2091 21.7909 22 24 22C26.2091 22 28 20.2091 28 18C28 20.2091 29.7909 22 32 22C34.2091 22 36 20.2091 36 18C36 20.2091 37.7909 22 40 22C41.2747 22 42.4101 21.4038 43.1426 20.4749C44.2344 19.0905 43.6669 17.1581 43.0184 15.5186L40.2111 8.42229C39.1353 6.27063 38.5974 5.19479 37.6308 4.5974C36.6642 4 35.4614 4 33.0557 4Z" fill="url(#paint0_linear_2126_13273)"/>
<path fill-rule="evenodd" clip-rule="evenodd" d="M40 42.5H44C44.8284 42.5 45.5 43.1716 45.5 44C45.5 44.8284 44.8284 45.5 44 45.5H4C3.17157 45.5 2.5 44.8284 2.5 44C2.5 43.1716 3.17157 42.5 4 42.5H8L8.00001 25C9.48725 25 10.8662 24.5362 12 23.7453C13.1338 24.5362 14.5128 25 16 25C17.4873 25 18.8662 24.5362 20 23.7453C21.1338 24.5362 22.5128 25 24 25C25.4873 25 26.8662 24.5362 28 23.7453C29.1338 24.5362 30.5128 25 32 25C33.4873 25 34.8662 24.5362 36 23.7453C37.1338 24.5362 38.5128 25 40 25L40 42.5ZM19 42.5H29V37C29 35.1308 29 34.1962 28.5981 33.5C28.3348 33.0439 27.9561 32.6652 27.5 32.4019C26.8038 32 25.8692 32 24 32C22.1308 32 21.1962 32 20.5 32.4019C20.0439 32.6652 19.6652 33.0439 19.4019 33.5C19 34.1962 19 35.1308 19 37V42.5Z" fill="url(#paint1_linear_2126_13273)"/>
<defs>
<linearGradient id="paint0_linear_2126_13273" x1="2.5" y1="4" x2="53.4394" y2="29.8625" gradientUnits="userSpaceOnUse">
<stop stop-color="white"/>
<stop offset="1" stop-color="#9FFF9B"/>
</linearGradient>
<linearGradient id="paint1_linear_2126_13273" x1="2.5" y1="4" x2="53.4394" y2="29.8625" gradientUnits="userSpaceOnUse">
<stop stop-color="white"/>
<stop offset="1" stop-color="#9FFF9B"/>
</linearGradient>
</defs>
</svg>
